<?xml version="1.0" encoding="utf-8"?>
<!-- Generator: Adobe Illustrator 25.2.3, SVG Export Plug-In . SVG Version: 6.00 Build 0)  -->
<svg version="1.1" id="Слой_1" xmlns="http://www.w3.org/2000/svg" xmlns:xlink="http://www.w3.org/1999/xlink" x="0px" y="0px"
	 viewBox="0 0 101 101" style="enable-background:new 0 0 101 101;" xml:space="preserve">
<style type="text/css">
	.st0{font-family:'Helvetica-Bold';}
	.st1{font-size:12px;}
</style>
<path d="M79.5,39.5c-2.5,0-4.9,0.5-7.2,1.4L60.2,17h3.3c0.8,0,1.5-0.7,1.5-1.5c0-0.8-0.7-1.5-1.5-1.5h-11c-0.8,0-1.5,0.7-1.5,1.5
	c0,0.8,0.7,1.5,1.5,1.5h4.3l7.1,14H35c-0.6,0-1.1,0.3-1.3,0.8L28.9,41C19.2,36.9,8,41.5,4,51.1S4.4,72,14.1,76S34.9,75.6,39,65.9
	c0.7-1.6,1.1-3.2,1.3-4.9h10.8c0.6,0,1.1-0.3,1.3-0.8l13.1-25.9l4.1,8c-8.9,5.5-11.7,17.2-6.2,26.1s17.2,11.7,26.1,6.2
	s11.7-17.2,6.2-26.1C92.3,42.9,86.1,39.4,79.5,39.5L79.5,39.5z M21.5,74.5c-8.8,0-16-7.2-16-16c0-8.8,7.2-16,16-16
	c2,0,4.1,0.4,6,1.2l-7.9,15.2c-0.4,0.7-0.1,1.6,0.6,2c0.2,0.1,0.4,0.2,0.7,0.2h16.4C36.1,68.8,29.4,74.5,21.5,74.5z M30.1,45
	c4.4,2.9,7.2,7.7,7.4,13H23.4L30.1,45z M50.2,58h-9.7c-0.2-6.4-3.6-12.3-9-15.6l4.4-8.4h26.5L50.2,58z M79.5,74.5
	c-8.8,0-16-7.3-15.9-16.1c0-5.4,2.8-10.5,7.4-13.4l7.4,14.7c0.5,0.6,1.5,0.7,2.1,0.2c0.4-0.4,0.6-1,0.5-1.5l-7.4-14.7
	c8.2-3.3,17.5,0.8,20.8,9c3.3,8.2-0.8,17.5-9,20.8C83.6,74.1,81.5,74.5,79.5,74.5z"/>
<path d="M27.5,27h14c0.8,0,1.5-0.7,1.5-1.5S42.3,24,41.5,24h-14c-0.8,0-1.5,0.7-1.5,1.5S26.7,27,27.5,27z"/>
<text transform="matrix(1 0 0 1 21.3994 91.248)" class="st0 st1">RE-CYCLE</text>
</svg>
